<?xml version="1.0" encoding="utf-8"?>
<!-- Generator: Adobe Illustrator 24.3.0, SVG Export Plug-In . SVG Version: 6.00 Build 0)  -->
<svg version="1.1" id="Capa_1" xmlns="http://www.w3.org/2000/svg" xmlns:xlink="http://www.w3.org/1999/xlink" x="0px" y="0px"
	 viewBox="0 0 612 792" style="enable-background:new 0 0 612 792;" xml:space="preserve">
<style type="text/css">
	.st0{opacity:0.1;fill:url(#SVGID_1_);}
	.st1{opacity:0.1;fill:url(#SVGID_2_);}
	.st2{fill:#F19EA1;}
	.st3{fill:#332B58;}
	.st4{fill:#2F1B0F;}
	.st5{fill:url(#SVGID_3_);}
	.st6{fill:url(#SVGID_4_);}
	.st7{fill:#BCBBBB;}
	.st8{fill:#92B8E2;}
	.st9{fill:url(#SVGID_5_);}
	.st10{fill:#663F17;}
	.st11{fill:url(#SVGID_6_);}
	.st12{fill:url(#SVGID_7_);}
	.st13{fill:url(#SVGID_8_);}
	.st14{fill:url(#SVGID_9_);}
	.st15{fill:url(#SVGID_10_);}
	.st16{fill:url(#SVGID_11_);}
	.st17{fill:url(#SVGID_12_);}
	.st18{fill:#4CA0D8;}
	.st19{fill:url(#SVGID_13_);}
	.st20{fill:url(#SVGID_14_);}
	.st21{fill:url(#SVGID_15_);}
	.st22{fill:url(#SVGID_16_);}
	.st23{fill:none;}
	.st24{fill:#FFFFFF;}
</style>
<linearGradient id="SVGID_1_" gradientUnits="userSpaceOnUse" x1="-145.5328" y1="741.7137" x2="129.5512" y2="371.371" gradientTransform="matrix(0.9798 -0.1998 0.1998 0.9798 178.2002 -190.7226)">
	<stop  offset="0" style="stop-color:#69C39C"/>
	<stop  offset="0.5004" style="stop-color:#56BCEB"/>
	<stop  offset="1" style="stop-color:#A695C7"/>
</linearGradient>
<path class="st0" d="M429.1,505.1c-38.2,40.7-108.4,46-149.7,14.8c-18-13.5-25.2-30-46.1-33.2c-21.6-3.3-33.7,11.3-52.6,19.2
	C138,523.6,77.5,500,57.6,467C22.4,408.9,78.7,264,171.3,224.3c122.2-52.4,287.8,87.2,290.9,194.5
	C463.6,467.3,431.6,502.4,429.1,505.1z"/>
<linearGradient id="SVGID_2_" gradientUnits="userSpaceOnUse" x1="201.536" y1="531.3443" x2="451.3634" y2="195.0042">
	<stop  offset="0" style="stop-color:#69C39C"/>
	<stop  offset="0.5004" style="stop-color:#56BCEB"/>
	<stop  offset="1" style="stop-color:#A695C7"/>
</linearGradient>
<path class="st1" d="M453,502.7c-47.5,27.8-113.5,13.7-142-26.8c-12.4-17.6-14.1-35-32.3-43.7c-18.9-9-34.4,1.5-54.2,3.7
	c-44.5,5-92.9-33.5-101.2-69.9c-14.6-64.1,81.1-184.8,178.2-196.8c128.2-15.9,237.8,160,208,261.6
	C496.2,476.7,456.2,500.9,453,502.7z"/>
<g>
	<rect x="172.6" y="585.8" class="st2" width="9.1" height="9.1"/>
	<path class="st3" d="M182.3,594.9h-10.6v6.4v5.7h25c0,0,1.8-3.7-4-6.8C188.2,597.6,182.3,594.9,182.3,594.9z"/>
</g>
<path class="st4" d="M581.4,470.7c-1.4,35.6-2.6,117,12.4,137.7c0.8,1,1.7,2,2.7,2.7c2.1,1.5,3.5,3.8,3.5,6.4v0
	c-8.1,0.5-13.4-7.9-16.7-15.1c-12.9-28.9-17.6-94.1-19.1-131.8H581.4z"/>
<linearGradient id="SVGID_3_" gradientUnits="userSpaceOnUse" x1="-2871.4607" y1="544.1367" x2="-2835.6599" y2="544.1367" gradientTransform="matrix(-1 0 0 1 -2271.5498 0)">
	<stop  offset="0" style="stop-color:#512019"/>
	<stop  offset="1" style="stop-color:#AF4425"/>
</linearGradient>
<path class="st5" d="M564.1,470.7c0.2,4.3,0.4,9,0.6,13.9c2,38.2,7,92.3,18.5,117.8c3.3,7.1,8.6,15.6,16.7,15.1v0
	c0-2.6-1.4-4.9-3.5-6.4c-1-0.7-1.9-1.7-2.7-2.7c-13.2-18.3-13.8-84.2-12.8-123.8c0.1-5.1,0.3-9.8,0.5-13.9H564.1z"/>
<linearGradient id="SVGID_4_" gradientUnits="userSpaceOnUse" x1="-2883.5498" y1="344.9031" x2="-2845.1309" y2="344.9031" gradientTransform="matrix(-1 0 0 1 -2271.5498 0)">
	<stop  offset="1" style="stop-color:#AF4425"/>
	<stop  offset="1" style="stop-color:#512019"/>
</linearGradient>
<path class="st6" d="M573.6,464.9l7.4,2.6c18.2-141.3,20.2-156.5,31-240.7c-0.1-0.1-7.1-4.7-6.6-4.4
	C603.4,237.1,574,461.6,573.6,464.9z"/>
<path class="st7" d="M94,447.6c0,0,18.4-171.6-16.6-181.3c0,0-13.9-1.9-18.2-2c-1.7,0-8.5,2.2-10,11.9
	c-3.6,23.5-8.6,91.5-14.1,126.9c-4.9,31.2,2,31.8,10.7,33.5C58,438.9,94,447.6,94,447.6z"/>
<g>
	<rect x="445.7" y="585.8" class="st2" width="9.1" height="9.1"/>
	<path class="st3" d="M445,594.9h10.6v6.4v5.7h-25c0,0-1.8-3.7,4-6.8C439.2,597.6,445,594.9,445,594.9z"/>
</g>
<path class="st8" d="M486.4,408.7c-25.4,10-51.9,32.9-58.3,63.7c-1.4,6.6-1.4,13.6,2.4,43.1c4.1,31.6,9.8,56.9,14.2,73.6h11.7
	c2.2-20.2,2.5-36.6,2.3-48.1c-0.3-21.3-2.3-31.7,2.9-46.5c4.9-14,12.7-21.9,14.6-23.8c1.5-1.5,8.5-8.1,19.9-11.9
	c14.2-4.7,20.3-0.1,45.2-2.8c9.9-1.1,12.9-2.2,14.4-3.2c0,0,0.4-0.3,0.7-0.5c5.5-4.5,10.1-27.6,1.7-40
	C546.1,394.4,508.1,400.2,486.4,408.7z"/>
<path class="st4" d="M497,609.6c14.7-21.2,11.7-103.9,9.5-138.9h17.4c-0.7,37.6-4.1,103.5-16.5,132.8c-3.1,7.2-8.3,15.8-16.4,15.4
	l0,0c-0.1-2.6,1.3-4.9,3.3-6.5C495.4,611.7,496.2,610.7,497,609.6z"/>
<linearGradient id="SVGID_5_" gradientUnits="userSpaceOnUse" x1="-2795.4153" y1="544.8019" x2="-2762.5562" y2="544.8019" gradientTransform="matrix(-1 0 0 1 -2271.5498 0)">
	<stop  offset="0" style="stop-color:#512019"/>
	<stop  offset="1" style="stop-color:#AF4425"/>
</linearGradient>
<path class="st9" d="M491,618.9L491,618.9c8.1,0.4,13.3-8.2,16.4-15.4c11-26,14.9-80.6,16.1-118.8c0.2-5,0.3-9.6,0.4-13.9h-17.4
	c0.2,4.1,0.5,8.8,0.8,13.9c1.9,39.5,2.7,106.3-10.3,125c-0.7,1.1-1.6,2-2.6,2.8C492.3,613.9,491,616.3,491,618.9z"/>
<path class="st10" d="M499.4,476.9h88.7v-17.7h-71C507.3,459.2,499.4,467.1,499.4,476.9L499.4,476.9z"/>
<linearGradient id="SVGID_6_" gradientUnits="userSpaceOnUse" x1="-2859.6299" y1="468.0631" x2="-2770.9116" y2="468.0631" gradientTransform="matrix(-1 0 0 1 -2271.5498 0)">
	<stop  offset="0" style="stop-color:#AF4425"/>
	<stop  offset="1" style="stop-color:#512019"/>
</linearGradient>
<path class="st11" d="M499.4,476.9h88.7v-17.7h-71C507.2,459.2,499.4,467.2,499.4,476.9z"/>
<g>
	<linearGradient id="SVGID_7_" gradientUnits="userSpaceOnUse" x1="312.742" y1="483.1666" x2="310.7211" y2="507.2147">
		<stop  offset="0" style="stop-color:#AF4425"/>
		<stop  offset="1" style="stop-color:#512019"/>
	</linearGradient>
	<rect x="243.4" y="493.1" class="st12" width="136" height="10.5"/>
	<g>
		<linearGradient id="SVGID_8_" gradientUnits="userSpaceOnUse" x1="248.63" y1="368.4122" x2="248.63" y2="612.4388">
			<stop  offset="0" style="stop-color:#512019"/>
			<stop  offset="1" style="stop-color:#AF4425"/>
		</linearGradient>
		<path class="st13" d="M259.5,364.5L210,604.7c-0.8,4.1,2.2,7.9,6.2,7.9h0.1c2.9,0,5.4-2,6.1-4.8l65-243.3H259.5z"/>
		
			<linearGradient id="SVGID_9_" gradientUnits="userSpaceOnUse" x1="1653.2179" y1="368.4122" x2="1653.2179" y2="612.4388" gradientTransform="matrix(-1 0 0 1 2029.4188 0)">
			<stop  offset="0" style="stop-color:#512019"/>
			<stop  offset="1" style="stop-color:#AF4425"/>
		</linearGradient>
		<path class="st14" d="M365.3,364.5l49.5,240.2c0.8,4.1-2.2,7.9-6.2,7.9h-0.1c-2.9,0-5.4-2-6.1-4.8l-65-243.3H365.3z"/>
	</g>
	<g>
		<linearGradient id="SVGID_10_" gradientUnits="userSpaceOnUse" x1="311.4685" y1="364.6709" x2="311.4685" y2="347.6818">
			<stop  offset="0" style="stop-color:#AF4425"/>
			<stop  offset="1" style="stop-color:#512019"/>
		</linearGradient>
		<path class="st15" d="M424.7,358.6c0,1-50.7,4.2-113.3,4.2s-113.3-3.2-113.3-4.2c0-1,50.7,0.5,113.3,0.5S424.7,357.5,424.7,358.6z
			"/>
		<linearGradient id="SVGID_11_" gradientUnits="userSpaceOnUse" x1="316.1727" y1="348.8853" x2="296.9128" y2="403.1629">
			<stop  offset="0" style="stop-color:#AF4425"/>
			<stop  offset="1" style="stop-color:#512019"/>
		</linearGradient>
		<path class="st16" d="M421.8,358.2c-1.5,0-51.7,3.5-110.4,3.7c-58.6-0.2-108.9-3.7-110.4-3.7h-0.2c-8.9,0-13.2,4.2-6.9,6.7
			c11.8,4.7,27.8,5.4,32.9,5.9c7.9,0.8,68.4,1.4,84.6,1.5c16.1-0.2,76.7-0.8,84.6-1.5c5.1-0.5,21.1-1.3,32.9-5.9
			c6.3-2.5,2-6.7-6.9-6.7H421.8z"/>
		<linearGradient id="SVGID_12_" gradientUnits="userSpaceOnUse" x1="207.4484" y1="360.492" x2="487.9141" y2="360.492">
			<stop  offset="0" style="stop-color:#B95835"/>
			<stop  offset="0.1349" style="stop-color:#B35534"/>
			<stop  offset="0.3386" style="stop-color:#A14C31"/>
			<stop  offset="0.586" style="stop-color:#853E2B"/>
			<stop  offset="0.8651" style="stop-color:#622A20"/>
			<stop  offset="1" style="stop-color:#512019"/>
		</linearGradient>
		<path class="st17" d="M311.5,362.8c53.3-0.2,100.5-2.5,117.5-3.4c-1.7-0.7-4.1-1.2-7-1.2h-0.2c-1.5,0-51.7,3.5-110.4,3.7
			c-58.6-0.2-108.9-3.7-110.4-3.7h-0.2c-2.9,0-5.2,0.5-7,1.2C210.9,360.3,258.1,362.6,311.5,362.8z"/>
	</g>
</g>
<g>
	<rect x="456.1" y="594.7" class="st2" width="9.1" height="9.1"/>
	<path class="st3" d="M455.5,603.8h10.6v6.4v5.7h-25c0,0-1.8-3.7,4-6.8C449.6,606.5,455.5,603.8,455.5,603.8z"/>
</g>
<path class="st18" d="M496.9,417.6c-25.4,10-51.9,32.9-58.3,63.7c-1.4,6.6-1.4,13.6,2.4,43.1c4.1,31.6,9.8,56.9,14.2,73.6h11.7
	c2.2-20.2,2.5-36.6,2.3-48.1c-0.2-16.8-1.4-28.9,2.9-46.5c3.6-14.6,8.1-21,11.4-24.8c1.5-1.7,9.2-10.3,22.6-14.5
	c8.4-2.6,11.3-1.2,36.3-2c18.3-0.6,20.6-1.5,22.8-3.1c9.4-7.3,11.2-26.9,3.5-37.9C555.9,402.8,517.7,409.5,496.9,417.6z"/>
<g>
	<g>
		<path class="st2" d="M540.5,163.7c-13-20.3-47-10.9-44.8,17.5l0-0.2c0,0,0,0.3,0.1,0.9c0,0.2,0,0.4,0.1,0.6
			c0.2,2.1,0.4,6.2,0.2,10.8c-0.1,1.5-0.5,2.8-1,4.6c-0.9,2.7,1.7,2.6,2.2,2.5c1.6-0.3,2.8-0.6,2.8-0.6c0.1,0.4,0.2,0.7,0.3,1.1
			c0.7,2.4,1.5,4.3,2.4,5.9c3.6,6.4,8.9,6.8,14.3,6.5v14l17.9-3.7c0,0-4-6.6-4.3-11.9c-0.2-2.7,4.3-5.7,6-7.4
			c2.9-2.9,6-6.9,7.5-12.8C547.1,179.8,545.7,171.7,540.5,163.7z"/>
	</g>
</g>
<path class="st7" d="M534.9,223.7c0,0,20.7,7.9,26.5,54.3c5.8,46.4,7,141.3,7,141.3h-75.3c0,0-9.3-73.7,7.5-124.4l16.4-67.4
	L534.9,223.7z"/>
<g>
	
		<rect x="408.2" y="231.4" transform="matrix(0.8744 -0.4851 0.4851 0.8744 -68.5789 231.1386)" class="st3" width="8.1" height="33.3"/>
	<path class="st2" d="M455.2,308.9c2.8,5.1,1,11.5-4.1,14.3l0,0c-5.1,2.8-11.5,1-14.3-4.1c0,0-8.8-15.7-11.2-21.2
		c-3.2-7.2-10.7-29.7-10.7-29.7l5.3-3.7c0,0,11.7,17.2,16,22.7C440.6,292.9,455.2,308.9,455.2,308.9z"/>
	<path class="st2" d="M414.9,268.3c0,0-13.7-6.2-11.9-21.8c0.4-3.7,4.9-3.3,7.2,4.6c1.6,5.3,5.8,10.7,6.6,7.3c0.4-1.4,1-5.2,2.7-5
		c2.7,0.2,0.7,11.2,0.7,11.2L414.9,268.3z"/>
	<path class="st7" d="M520.4,228.3c-12.8-5.7-24.1,16.8-37.8,41.3c-4.2,7.5-14.7,23-22,32.2c-5.7,7.2-13.4-3-16.5-7.8
		c-4.8-7.5-21.4-28.8-21.4-28.8l-9,5.5c0,0,15.9,62.9,40.8,67.9c4.6,0.9,12.4-2.2,19.2-7.5c7.7-6,18.4-14,25.3-23.8
		C520.8,276.1,541,237.6,520.4,228.3z"/>
</g>
<path class="st3" d="M542.8,162.4c-9.2-12.8-24.4-11.1-30.5-9.7c-6.2,1.4-12.3,6.1-16.2,16c-0.4,1-1.1,4.9-0.9,6.4c0,0,0,0,0,0.1
	c0,0-0.9,5,3.8,4.6c4.6-0.4,5.4-7.2,10.6-4.6c5.2,2.5,4.8,10.2,11.6,11.6c1.6,0.3,4.2-0.8,4.9-4.2c0.5-2.3,5.2-1.5,5.5,2.4
	c0.2,2.3-1.7,10.3-4.1,8.6c-2.7-1.9-6.5,1.8-1.8,5.2c3.2,2.3,0.1,9.7,5.8,9.3c3.7-0.2,11.1-3.7,14.3-11.2
	C548.7,190.1,553.2,177,542.8,162.4z"/>
<path class="st7" d="M545.4,163.9c0,0-4.8-8.2-7.7-12c-4.6-6.1-13.3-7.1-23.1-3.3l-12.1,5.2c-6.3,2.7-10.1,6.6-11.6,19.3l-0.5,10.9
	l-10.3,4.3c-1.4,0.6-2,2.1-1.4,3.5c0.6,1.4,2.1,2,3.5,1.4l61.7-25.8C545.4,166.8,546,165.3,545.4,163.9z"/>
<path class="st8" d="M140.9,408.7c25.4,10,51.9,32.9,58.3,63.7c1.4,6.6,1.4,13.6-2.4,43.1c-4.1,31.6-9.8,56.9-14.2,73.6h-11.7
	c-2.2-20.2-2.5-36.6-2.3-48.1c0.3-21.3,2.3-31.7-2.9-46.5c-4.9-14-12.7-21.9-14.6-23.8c-1.5-1.5-8.5-8.1-19.9-11.9
	c-14.2-4.7-20.3-0.1-45.2-2.8c-9.9-1.1-12.9-2.2-14.4-3.2c0,0-0.4-0.3-0.7-0.5c-5.5-4.5-10.1-27.6-1.7-40
	C81.2,394.4,119.2,400.2,140.9,408.7z"/>
<path class="st4" d="M46,470.7c1.4,35.6,2.6,117-12.4,137.7c-0.8,1-1.7,2-2.7,2.7c-2.1,1.5-3.5,3.8-3.5,6.4v0
	c8.1,0.5,13.4-7.9,16.7-15.1c12.9-28.9,17.6-94.1,19.1-131.8H46z"/>
<path class="st4" d="M130.4,609.6c-14.7-21.2-11.7-103.9-9.5-138.9h-17.4c0.7,37.6,4.1,103.5,16.5,132.8c3.1,7.2,8.3,15.8,16.4,15.4
	l0,0c0.1-2.6-1.3-4.9-3.3-6.5C132,611.7,131.1,610.7,130.4,609.6z"/>
<linearGradient id="SVGID_13_" gradientUnits="userSpaceOnUse" x1="5435.2715" y1="544.1389" x2="5471.0723" y2="544.1389" gradientTransform="matrix(1 0 0 1 -5407.8135 0)">
	<stop  offset="0" style="stop-color:#512019"/>
	<stop  offset="1" style="stop-color:#AF4425"/>
</linearGradient>
<path class="st19" d="M63.3,470.7c-0.2,4.3-0.4,9-0.6,13.9c-2,38.2-7,92.3-18.5,117.8c-3.3,7.1-8.6,15.6-16.7,15.1v0
	c0-2.6,1.4-4.9,3.5-6.4c1-0.7,1.9-1.7,2.7-2.7c13.2-18.3,13.8-84.2,12.8-123.8c-0.1-5.1-0.3-9.8-0.5-13.9H63.3z"/>
<linearGradient id="SVGID_14_" gradientUnits="userSpaceOnUse" x1="5511.3169" y1="544.8041" x2="5544.1758" y2="544.8041" gradientTransform="matrix(1 0 0 1 -5407.8135 0)">
	<stop  offset="0" style="stop-color:#512019"/>
	<stop  offset="1" style="stop-color:#AF4425"/>
</linearGradient>
<path class="st20" d="M136.4,618.9L136.4,618.9c-8.1,0.4-13.3-8.2-16.4-15.4c-11-26-14.9-80.6-16.1-118.8c-0.2-5-0.3-9.6-0.4-13.9
	h17.4c-0.2,4.1-0.5,8.8-0.8,13.9c-1.9,39.5-2.7,106.3,10.3,125c0.7,1.1,1.6,2,2.6,2.8C135.1,613.9,136.4,616.3,136.4,618.9z"/>
<linearGradient id="SVGID_15_" gradientUnits="userSpaceOnUse" x1="5423.1821" y1="344.9053" x2="5461.6011" y2="344.9053" gradientTransform="matrix(1 0 0 1 -5407.8135 0)">
	<stop  offset="1" style="stop-color:#AF4425"/>
	<stop  offset="1" style="stop-color:#512019"/>
</linearGradient>
<path class="st21" d="M53.8,464.9l-7.4,2.6C28.2,326.2,26.2,311,15.4,226.8c0.1-0.1,7.1-4.7,6.6-4.4C24,237.1,53.4,461.6,53.8,464.9
	z"/>
<path class="st10" d="M128,476.9H39.3v-17.7h71C120.1,459.2,128,467.1,128,476.9L128,476.9z"/>
<linearGradient id="SVGID_16_" gradientUnits="userSpaceOnUse" x1="5447.1021" y1="468.0652" x2="5535.8203" y2="468.0652" gradientTransform="matrix(1 0 0 1 -5407.8135 0)">
	<stop  offset="0" style="stop-color:#AF4425"/>
	<stop  offset="1" style="stop-color:#512019"/>
</linearGradient>
<path class="st22" d="M128,476.9H39.3v-17.7h71C120.2,459.2,128,467.2,128,476.9z"/>
<g>
	<rect x="162.1" y="594.7" class="st2" width="9.1" height="9.1"/>
	<path class="st3" d="M171.9,603.8h-10.6v6.4v5.7h25c0,0,1.8-3.7-4-6.8C177.7,606.5,171.9,603.8,171.9,603.8z"/>
</g>
<path class="st18" d="M130.5,417.6c25.4,10,51.9,32.9,58.3,63.7c1.4,6.6,1.4,13.6-2.4,43.1c-4.1,31.6-9.8,56.9-14.2,73.6h-11.7
	c-2.2-20.2-2.5-36.6-2.3-48.1c0.2-16.8,1.4-28.9-2.9-46.5c-3.6-14.6-8.1-21-11.4-24.8c-1.5-1.7-9.2-10.3-22.6-14.5
	c-8.4-2.6-11.3-1.2-36.3-2c-18.3-0.6-20.6-1.5-22.8-3.1c-9.4-7.3-11.2-26.9-3.5-37.9C71.5,402.8,109.7,409.5,130.5,417.6z"/>
<path class="st7" d="M109.8,401.2c4.5,0.7,9,1.5,13.4,2.2c-5-29.3-10-58.5-15-87.8l-18.6-37.5C96.4,319.1,103.1,360.1,109.8,401.2z"
	/>
<path class="st2" d="M61,200.7c15.1-18.7,47.7-5.7,42.5,22.1l0.1-0.2c0,0-0.1,0.3-0.2,0.9c0,0.2-0.1,0.4-0.1,0.6
	c-0.4,2.1-1.1,6.1-1.4,10.7c-0.1,1.5,0.1,2.8,0.5,4.6c0.6,2.7-1.9,2.4-2.5,2.3c-1.5-0.5-2.7-0.9-2.7-0.9c-0.2,0.3-0.3,0.7-0.4,1
	c-0.9,2.3-1.9,4.1-3,5.6c-4.3,5.9-9.5,5.8-14.8,4.9l-1.5,13.8l-18.2-2c0,0,5.5-9.8,6.4-14.9c0.5-2.7-3.6-6.1-5.1-8
	c-2.6-3.1-5.2-7.4-6.1-13.5C52.7,216,55.1,208.2,61,200.7z"/>
<g>
	<g>
		<path class="st23" d="M60,432.1"/>
	</g>
</g>
<path class="st24" d="M88.3,276.5c0,0,11,9.8,16.4,49c4.6,33.4,5.3,49.4,5.1,82.7L97,410.4C97,410.4,96.5,292.2,88.3,276.5z"/>
<path class="st3" d="M10.1,289.8L10.1,289.8c0-1.1,0-2.2,0.1-3.1c0.6-4.6-4-8.9-8.7-16c-4.7-7.1,3.1-15.2,5.5-21.3
	c2.4-6.1-1.2-10.6-2.7-15.8c-1.4-5.2,2.5-7.7,9.9-8.8c7.4-1.1,13.1-9.2,14.9-17.4c1.9-8.2,10.4-12.3,18.2-12.3
	c7.9,0,18.5-7.5,18.5-7.5l0,0.1c0.6-0.5,1.3-1,2.3-1.4c4.5-1.8,9.1-1.4,12.6,0.8c2.2,1.3,3.2,1.6,9.5,1.3c4.7-0.2,8.4,3.1,8.9,7.9
	c0.4,3.2,0.2,5.6,5.8,8.4c6.3,3.1,1.8,16.9-4.7,16.1c-4.7-0.6-4.7-7.9-10.3-5.9c-5.5,2-6,9.8-13,10.5c-1.6,0.2-4-1.3-4.5-4.7
	c-0.5-3.3-6.5-1.4-7.3,2.5c-0.4,2.3-1.1,9.5,4.6,8.4c3.3-0.6,6.3,2.5,1.2,5.5c-2.6,1.5-1.9,6.4-4,8.2l0,0c0,0,0,0,0,0
	c-0.3,0.2-0.6,0.4-0.9,0.5c-0.6,0.2-1.2,0.3-1.8,0.3l0,0.1c2.8,1.5,0.5,5.8,0,7.6c-1.2,4-5.2,10.8-5.2,10.8
	c-7.7,1.8-10,11.9-10,11.9l-7.8,73.9c-8.9,5-16.5,0.8-16.2-12.3c0.3-13.1-10.3-11.6-17.4-24.5C0.9,300.4,10.1,289.8,10.1,289.8z"/>
<g>
	<g>
		<g>
			<path class="st8" d="M92.5,408.6c0,0-44.6-11.1-64.7-5.1c0,0-12.7,65,9.4,70.1c22.1,5.1,26.7,5.1,35.2,2.8
				C89.5,471.7,89.9,469.9,92.5,408.6z"/>
		</g>
		<g>
			<g>
				<path class="st8" d="M85.8,409.7c0-0.9,2.5-92.8,2.2-112.2c-0.3-20-3.1-29.4-19.1-31.9c-4.7-0.7-8.8,0.2-12,2.7
					c-6.6,5.2-8.4,15.8-9.2,25.5c-2.9,33.9-5.8,60.4-13.1,111l6.2,0.9c7.4-50.8,10.2-77.3,13.2-111.4c0.6-7.3,2-17.4,6.9-21.1
					c1.9-1.5,4.2-1.9,7.2-1.5c11.2,1.8,13.6,6.4,13.9,25.8c0.3,19.3-2.2,111.1-2.2,112L85.8,409.7z"/>
			</g>
		</g>
	</g>
</g>
<path class="st7" d="M138,317.8c-14-12.4-53.3-38.1-61.2-44c-9-6.8-16.3-3.3-20,0.5c-3.2,3.3-6.3,13.9,1.1,20.8
	c7.4,6.9,47.3,34.3,64.8,43.1c5.1,2.6,13.3,7.3,19.6-1.9C147.1,329.1,141.8,321.2,138,317.8z"/>
<path class="st7" d="M172.5,282.5c0,0-37.8,31.9-45.4,38.2c-5.5,4.6-6.3,11.6-3.2,16c2.6,3.7,9.1,7.5,17.3,1.5
	c8.2-6,40.1-47.8,40.1-47.8L172.5,282.5z"/>
<polygon class="st3" points="183.5,282.5 179.3,278.8 199.8,255.4 204,259.1 "/>
<path class="st2" d="M180.8,289.9c0,0,13.1-0.4,21.7-20.7c2.4-5.6-2-9.6-7.9-0.7c-5,7.6-16.6,11.9-12.8,7.5c2.5-2.9,5.4-6.6,2.5-6.1
	c-5.9,1-10.9,13.4-10.9,13.4L180.8,289.9z"/>
</svg>
